<?xml version="1.0" encoding="utf-8"?>
<!-- Generator: Adobe Illustrator 16.0.0, SVG Export Plug-In . SVG Version: 6.00 Build 0)  -->
<!DOCTYPE svg PUBLIC "-//W3C//DTD SVG 1.1//EN" "http://www.w3.org/Graphics/SVG/1.1/DTD/svg11.dtd">
<svg version="1.1" id="Capa_1" xmlns="http://www.w3.org/2000/svg" xmlns:xlink="http://www.w3.org/1999/xlink" x="0px" y="0px"
	 width="1178.771px" height="105.312px" viewBox="0 0 1178.771 105.312" enable-background="new 0 0 1178.771 105.312"
	 xml:space="preserve">
<path fill-rule="evenodd" clip-rule="evenodd" fill="#FF1800" d="M728.353,52.408c-5.871-0.689-11.74-1.395-17.614-2.06
	c-2.638-0.298-5.157-0.297-7.665,1.117c-1.352,0.762-3.256,0.823-4.887,0.737c-2.148-0.113-4.027-0.013-5.86,1.385
	c-1.69,1.289-3.671,2.21-5.57,3.207c-1.876,0.982-2.762,2.497-2.685,4.568c0.063,1.676-0.008,3.407,0.397,5.008
	c0.39,1.541,1.189,3.027,2.063,4.375c0.387,0.597,1.356,0.959,2.129,1.137c2.251,0.52,4.545,0.846,6.804,1.336
	c2.143,0.465,4.198,0.112,6.286-0.345c3.63-0.794,7.28-1.494,10.923-2.232c0.078-0.016,0.159-0.031,0.238-0.026
	c6.959,0.438,13.998-0.074,20.83,1.9c2.29,0.662,4.66,1.346,7.013,1.418c3.37,0.102,6.78-0.181,10.129-0.631
	c1.821-0.244,3.529-1.248,5.326-1.779c2.6-0.768,5.229-1.131,7.897-0.193c2.631,0.924,3.54,3.305,1.791,5.472
	c-1.079,1.337-2.519,2.448-3.966,3.405c-2.386,1.578-4.683,3.396-7.583,3.999c-0.969,0.202-1.993,0.427-2.956,0.321
	c-5.959-0.658-11.91-1.382-17.856-2.145c-1.622-0.209-3.219-0.619-4.824-0.955c-5.184-1.087-10.251-0.242-15.334,0.795
	c-2.933,0.598-5.933,0.858-8.875,1.416c-3.348,0.633-6.698,1.035-10.109,0.891c-0.895-0.039-1.709,0.422-1.784,1.266
	c-0.057,0.628,0.486,1.316,0.791,1.963c0.06,0.127,0.237,0.242,0.381,0.277c3.701,0.898,6.763,3.371,10.755,3.805
	c3.684,0.4,7.299,0.416,10.971,0.398c2.012-0.01,4.125,0.568,6.006,1.34c1.155,0.474,2,1.772,2.903,2.773
	c0.721,0.797,1.328,1.699,1.971,2.566c1.079,1.454,0.847,2.686-0.521,3.832c-3.649,3.063-7.559,3.25-11.74,1.253
	c-0.749-0.358-1.582-0.538-2.372-0.812c-2.598-0.902-5.193-1.813-7.793-2.711c-0.415-0.143-0.849-0.349-1.27-0.338
	c-3.648,0.1-6.786-1.695-10.117-2.738c-2.696-0.844-5.339-1.875-7.96-2.934c-2.28-0.921-4.684-1.178-6.947-0.568
	c-4.516,1.217-9.146,1.492-13.721,2.213c-4.22,0.664-8.406,1.538-12.614,2.277c-1.057,0.187-2.155,0.378-3.211,0.285
	c-3.814-0.332-7.633-0.693-11.424-1.225c-2.445-0.344-4.854-0.972-7.265-1.529c-3.112-0.719-4.957-3.515-4.456-6.66
	c0.044-0.277,0.095-0.553,0.123-0.83c0.252-2.502-0.707-3.378-3.212-3.05c-0.858,0.112-1.744,0.026-2.616,0.013
	c-0.478-0.007-0.987-0.177-1.427-0.061c-1.979,0.52-3.868,0.104-5.801-0.305c-1.067-0.226-2.222-0.168-3.322-0.072
	c-1.156,0.102-2.15-0.041-3.202-0.633c-0.81-0.455-1.87-0.648-2.815-0.639c-2.446,0.029-4.738-0.387-6.878-1.613
	c-0.615-0.352-1.305-0.582-1.976-0.828c-0.786-0.287-1.629-0.447-2.372-0.814c-0.921-0.455-1.799-0.59-2.768-0.232
	c-1.121,0.413-1.997,0.08-2.962-0.66c-1.473-1.131-3.135-2.016-4.73-2.98c-0.509-0.309-1.199-0.42-1.57-0.833
	c-2.066-2.293-4.797-3.496-7.472-4.843c-1.702-0.857-3.254-2.009-4.91-2.964c-0.721-0.415-1.54-0.657-2.305-0.999
	c-1.376-0.618-2.7-1.395-4.126-1.852c-3.225-1.029-5.846-3.455-9.324-3.918c-0.821-0.109-1.596-0.695-2.353-1.131
	c-1.934-1.115-3-0.816-4.203,1.022c-1.787,2.729-4.035,5.057-6.601,7.065c-0.397,0.312-0.915,0.485-1.398,0.668
	c-2.011,0.76-4.008,1.568-6.052,2.227c-1.669,0.537-3.411,0.849-5.101,1.328c-2.329,0.66-4.598,0.482-6.981,0.1
	c-6.569-1.059-13.171-2.542-19.81-0.354c-8.612,2.84-17.397,2.588-26.23,1.477c-2.476-0.313-4.633,0.061-6.687,1.791
	c-1.547,1.303-3.526,2.299-5.477,2.87c-2.976,0.872-6.083,1.327-9.156,1.833c-2.408,0.396-4.386-0.719-6.077-2.281
	c-1.334-1.232-0.923-2.961,0.779-3.623c1.414-0.549,2.872-0.985,4.275-1.559c0.534-0.217,1.057-0.601,1.431-1.04
	c0.734-0.864,0.454-1.998-0.558-2.519c-0.314-0.162-0.674-0.299-1.022-0.324c-3.976-0.283-7.87-0.209-11.531,1.786
	c-2.652,1.445-5.532,2.481-8.145,3.987c-4.032,2.322-8.414,3.279-12.934,3.639c-4.182,0.333-8.061-0.85-11.564-3.184
	c-1.128-0.752-2.328-1.422-3.35-2.299c-1.646-1.412-1.75-2.596-0.637-4.426c0.27-0.444,0.545-0.887,0.797-1.341
	c1.392-2.511,3.694-3.444,6.349-2.282c1.475,0.646,2.905,1.566,4.097,2.647c1.642,1.489,3.333,1.938,5.385,1.175
	c0.258-0.096,0.547-0.168,0.819-0.16c3.065,0.086,5.463-1.44,7.854-3.103c1.762-1.226,3.667-2.244,5.495-3.376
	c2.579-1.598,5.211-3.134,6.867-5.827c0.983-1.6,2.524-2.498,4.279-2.836c0.854-0.165,1.965,0.037,2.716,0.483
	c2.806,1.667,5.412,3.692,8.288,5.213c2.012,1.063,4.298,1.762,6.544,2.182c1.883,0.352,3.391-0.918,4.311-2.503
	c1.157-1.991,2.039-4.139,3.127-6.173c0.714-1.335,1.472-2.679,2.427-3.84c0.474-0.576,1.427-0.771,2.181-1.098
	c1.419-0.617,2.994-1,4.234-1.865c1.089-0.759,2.095-1.917,2.643-3.124c1.866-4.107,4.695-7.381,8.147-10.179
	c0.521-0.422,1.188-0.658,1.749-1.039c0.522-0.356,1.258-0.703,1.424-1.209c0.293-0.897,0.469-1.973,0.245-2.861
	c-0.251-0.995-1.368-1.086-2.311-1.132c-0.239-0.011-0.5-0.049-0.716,0.026c-2.853,0.98-5.842,1.601-8.357,3.44
	c-0.857,0.627-1.99,0.882-2.836,1.52c-2.434,1.833-5.236,2.328-8.153,2.812c-3.299,0.547-6.517,1.579-9.771,2.392
	c-1.966,0.491-3.921,0.532-5.94,0.17c-1.138-0.204-2.371-0.004-3.543,0.148c-1.423,0.186-2.833,0.49-4.239,0.786
	c-1.639,0.345-3.272,0.715-4.898,1.114c-3.173,0.777-6.343,1.568-9.506,2.386c-0.881,0.228-1.739,0.554-2.597,0.864
	c-0.788,0.285-1.55,0.645-2.344,0.909c-2.501,0.831-5.172,1.324-7.478,2.524c-2.693,1.402-5.422,2.408-8.375,3.016
	c-1.707,0.352-3.349,1.042-4.997,1.643c-0.817,0.298-1.659,0.635-2.353,1.142c-1.169,0.853-2.415,1.199-3.829,1.06
	c-3.238-0.319-6.199,0.34-9.034,2.048c-2.803,1.69-6.061,1.932-9.261,2.185c-2.519,0.199-4.993,0.268-7.438-0.732
	c-1.183-0.484-2.582-0.506-3.893-0.602c-3.414-0.249-5.368-2.559-6.628-5.245c-1.068-2.276-0.509-4.876,0.333-7.257
	c1.226-3.469,4.178-5.085,7.234-6.551c0.719-0.345,1.472-0.665,2.244-0.839c1.184-0.268,2.393-0.494,3.601-0.557
	c0.956-0.05,1.858-0.164,2.165-1.133c0.637-2.007,2.234-3.088,3.827-4.135c1.691-1.113,3.664-1.851,5.206-3.125
	c1.889-1.56,3.968-2.57,6.194-3.471c0.694-0.281,1.223-1.237,1.596-1.997c1.341-2.731,2.919-3.562,5.895-2.935
	c0.313,0.066,0.624,0.146,0.929,0.24c2.165,0.668,4.143,0.195,5.602-1.442c1.655-1.856,3.618-2.139,5.868-1.854
	c1.068,0.135,2.172,0.351,3.217,0.211c1.147-0.153,2.37-0.478,3.335-1.084c1.275-0.801,2.554-1.346,4.036-1.252
	c1.508,0.096,3.024,0.235,4.508,0.512c1.199,0.224,2.248,0.162,3.335-0.458c4.739-2.704,2.942-2.664,8.447-1.413
	c1.333,0.303,2.608,0.168,3.788-0.635c1.314-0.895,2.764-1.06,4.232-0.451c1.32,0.547,2.616,0.569,3.985,0.22
	c2.293-0.584,4.55-0.435,6.867,0.141c3.021,0.75,6.136,1.111,9.168,1.82c4.164,0.974,8.316,1.914,12.608,2.152
	c0.92,0.051,1.887,0.441,2.707,0.898c2.224,1.239,4.58,1.562,7.07,1.402c1.191-0.077,2.396,0.06,3.588-0.005
	c2.422-0.133,4.864-0.186,7.255-0.551c2.762-0.421,5.49-1.093,8.208-1.76c1.071-0.263,2.132-0.704,3.093-1.248
	c1.815-1.028,3.694-1.749,5.802-1.624c1.694,0.1,3.028-0.479,4.391-1.514c1.011-0.768,2.429-1.106,3.719-1.376
	c2.02-0.422,4.085-0.623,6.13-0.924c0.435-0.064,0.863-0.222,1.296-0.23c3.475-0.068,6.949-0.109,10.424-0.161
	c1.198-0.018,2.405,0.043,3.593-0.082c3.471-0.365,6.86,0.149,10.244,0.807c2.195,0.427,4.384,0.888,6.589,1.254
	c1.4,0.233,2.659,0.632,3.871,1.457c0.749,0.509,1.887,0.713,2.816,0.637c3.333-0.272,6.462,0.153,9.298,2.045
	c0.131,0.088,0.283,0.15,0.434,0.204c3.108,1.112,6.239,2.165,9.32,3.348c2.75,1.056,5.418,2.327,8.176,3.361
	c1.319,0.495,2.749,0.767,4.154,0.947c1.451,0.187,2.827,0.396,4.013,1.369c0.403,0.331,1.015,0.588,1.525,0.579
	c3.041-0.06,6.135,0.7,9.099-0.778c0.781-0.39,1.891-0.237,2.836-0.164c2.229,0.172,4.17-0.549,6.222-1.358
	c2.373-0.936,4.979-1.525,7.524-1.718c2.971-0.225,5.986,0.125,8.981,0.266c0.548,0.026,1.121,0.162,1.626,0.378
	c5.256,2.253,10.589,2.163,15.943,0.478c2.787-0.877,5.606-1.253,8.514-1.073c0.717,0.044,1.485,0.185,2.143-0.012
	c0.564-0.168,1.172-0.673,1.424-1.192c0.113-0.233-0.5-1.031-0.946-1.284c-1.179-0.666-2.468-1.135-3.671-1.763
	c-0.555-0.289-1.087-0.699-1.496-1.17c-0.823-0.945-0.455-2.013,0.777-2.227c0.61-0.106,1.266,0.049,1.9,0.073
	c1.468,0.054,2.938,0.191,4.401,0.13c2.275-0.096,4.545-0.467,6.817-0.465c2.271,0.002,4.416,0.745,6.299,2.05
	c1.107,0.767,2.262,1.18,3.602,0.975c1.267-0.194,2.138-0.927,2.493-2.137c0.354-1.208-0.134-2.169-1.104-2.941
	c-1.593-1.27-3.242-2.485-4.702-3.895c-0.863-0.833-1.559-1.928-2.059-3.028c-0.643-1.411,0.146-2.385,1.705-2.231
	c0.604,0.06,1.289,0.285,1.747,0.664c1.415,1.172,3.044,1.677,4.811,1.99c3.658,0.648,7.35,1.202,10.936,2.144
	c2.403,0.631,4.809,1.645,6.54,3.575c2.268,2.527,5.252,3.867,8.239,5.166c2.273,0.987,3.901,2.567,5.238,4.557
	c1.268,1.887,2.563,3.756,3.795,5.667c1.149,1.783,1.265,3.839,1.417,5.877c0.076,1.031,0.061,2.091,0.305,3.084
	c0.677,2.759,2.631,4.384,5.146,5.446c3.271,1.379,6.546,2.746,9.805,4.152c2.206,0.951,2.699,3.073,0.894,4.688
	c-1.277,1.143-2.893,1.936-4.43,2.748c-0.759,0.401-1.782,0.323-2.512,0.756c-3.147,1.865-6.561,1.814-10.018,1.602
	c-0.398-0.025-0.8-0.003-1.2-0.003C728.378,52.221,728.365,52.314,728.353,52.408z"/>
<g>
	<path d="M0,51.3c1.208,0.071,3.078,0.106,5.613,0.106c2.416,0,4.274-0.036,5.577-0.106v0.71c-1.231,0.047-2.019,0.249-2.362,0.604
		c-0.343,0.355-0.515,1.172-0.515,2.452v18.046c0,1.09,0.136,1.782,0.409,2.078c0.272,0.297,0.882,0.444,1.83,0.444h1.741
		c1.61,0,3.002-0.722,4.174-2.167c1.172-1.444,1.936-3.362,2.291-5.755h0.817c-0.071,0.806-0.107,1.848-0.107,3.126
		c0,2.273,0.083,4.145,0.249,5.613c-1.611-0.071-4.323-0.106-8.135-0.106c-5.164,0-9.023,0.035-11.581,0.106v-0.711
		c1.137-0.047,1.865-0.248,2.185-0.604s0.479-1.173,0.479-2.451v-17.62c0-1.28-0.16-2.097-0.479-2.452
		C1.865,52.259,1.137,52.058,0,52.011V51.3z"/>
	<path d="M35.916,51.3c1.208,0.071,3.078,0.106,5.613,0.106c2.297,0,4.085-0.036,5.364-0.106v0.71
		c-1.161,0.047-1.895,0.249-2.203,0.604c-0.308,0.355-0.462,1.172-0.462,2.452v17.62c0,1.278,0.154,2.096,0.462,2.451
		c0.308,0.355,1.042,0.557,2.203,0.604v0.711c-1.279-0.071-3.067-0.106-5.364-0.106c-2.535,0-4.405,0.035-5.613,0.106v-0.711
		c1.137-0.047,1.865-0.248,2.185-0.604s0.479-1.173,0.479-2.451v-17.62c0-1.28-0.16-2.097-0.479-2.452
		c-0.32-0.355-1.048-0.556-2.185-0.604V51.3z"/>
	<path d="M76.129,63.236c3.079,0.237,5.34,0.948,6.786,2.132c1.444,1.185,2.167,2.582,2.167,4.192c0,2.202-0.865,3.901-2.593,5.098
		c-1.729,1.196-4.133,1.794-7.212,1.794c-0.213,0-1.03-0.018-2.451-0.054c-1.421-0.035-2.712-0.053-3.872-0.053
		c-2.439,0-4.263,0.035-5.471,0.106v-0.711c1.137-0.047,1.865-0.248,2.185-0.604s0.479-1.173,0.479-2.451v-17.62
		c0-1.28-0.16-2.097-0.479-2.452c-0.32-0.355-1.048-0.556-2.185-0.604V51.3c1.208,0.071,3.007,0.106,5.399,0.106
		c0.876,0,1.978-0.012,3.304-0.036c1.326-0.023,2.083-0.036,2.273-0.036c2.842,0,5.015,0.51,6.519,1.528
		c1.504,1.019,2.256,2.368,2.256,4.05c0,1.374-0.598,2.653-1.794,3.837c-1.196,1.185-2.966,1.989-5.311,2.416V63.236z
		 M73.323,63.095c2.771,0,4.156-1.93,4.156-5.791c0-1.776-0.279-3.102-0.835-3.979c-0.557-0.876-1.438-1.314-2.646-1.314
		c-0.924,0-1.522,0.201-1.794,0.604c-0.272,0.403-0.409,1.22-0.409,2.452v8.028H73.323z M71.795,72.687
		c0,1.231,0.148,2.031,0.444,2.397c0.296,0.367,0.964,0.551,2.007,0.551c3.292,0,4.938-2.072,4.938-6.217
		c0-3.813-1.966-5.72-5.897-5.72h-1.492V72.687z"/>
	<path d="M125.402,74.889c-1.208,1.374-2.783,2.061-4.725,2.061c-1.374,0-2.458-0.29-3.25-0.87c-0.794-0.58-1.309-1.569-1.545-2.967
		l-0.639-3.552c-0.308-1.729-0.681-3.002-1.119-3.819c-0.438-0.817-1.167-1.226-2.185-1.226h-2.309v8.171
		c0,1.278,0.154,2.096,0.462,2.451c0.308,0.355,1.042,0.557,2.203,0.604v0.711c-1.279-0.071-3.067-0.106-5.364-0.106
		c-2.535,0-4.405,0.035-5.613,0.106v-0.711c1.137-0.047,1.865-0.248,2.185-0.604s0.479-1.173,0.479-2.451v-17.62
		c0-1.28-0.16-2.097-0.479-2.452c-0.32-0.355-1.048-0.556-2.185-0.604V51.3c1.208,0.071,3.007,0.106,5.399,0.106
		c0.876,0,1.978-0.012,3.304-0.036c1.326-0.023,2.083-0.036,2.273-0.036c3.268,0,5.725,0.533,7.372,1.599
		c1.646,1.066,2.469,2.593,2.469,4.583c0,1.682-0.616,3.161-1.847,4.44c-1.232,1.278-3.269,2.084-6.11,2.415
		c2.131,0.19,3.718,0.652,4.76,1.386c1.042,0.734,1.717,1.836,2.025,3.304l0.817,3.659c0.189,0.972,0.409,1.641,0.657,2.007
		c0.249,0.368,0.598,0.551,1.048,0.551c0.473-0.023,0.947-0.296,1.421-0.816L125.402,74.889z M111.157,63.805
		c1.941,0,3.274-0.515,3.997-1.545c0.722-1.03,1.083-2.48,1.083-4.352c0-1.942-0.344-3.41-1.03-4.406
		c-0.688-0.995-1.812-1.492-3.375-1.492c-0.924,0-1.522,0.201-1.794,0.604c-0.272,0.403-0.409,1.22-0.409,2.452v8.738H111.157z"/>
	<path d="M153.005,50.803c3.813,0,6.856,1.137,9.13,3.41c2.273,2.274,3.41,5.424,3.41,9.45c0,3.955-1.172,7.158-3.517,9.609
		c-2.344,2.451-5.364,3.677-9.059,3.677c-3.813,0-6.856-1.137-9.13-3.41s-3.411-5.423-3.411-9.45c0-3.954,1.167-7.158,3.5-9.609
		C146.261,52.028,149.286,50.803,153.005,50.803z M152.863,51.442c-1.966,0-3.547,1.154-4.743,3.464
		c-1.196,2.309-1.794,5.323-1.794,9.041c0,3.694,0.651,6.679,1.954,8.952c1.302,2.273,2.913,3.41,4.832,3.41
		c1.965,0,3.546-1.154,4.743-3.464c1.195-2.309,1.794-5.322,1.794-9.041c0-3.694-0.652-6.679-1.954-8.952
		C156.391,52.579,154.781,51.442,152.863,51.442z"/>
	<path d="M184.195,67.108c0.166,2.653,0.758,4.803,1.776,6.448c1.018,1.646,2.581,2.469,4.689,2.469c1.279,0,2.333-0.343,3.162-1.03
		c0.829-0.687,1.244-1.669,1.244-2.948c0-1.326-0.426-2.463-1.279-3.41s-2.203-2.013-4.05-3.197
		c-1.066-0.687-1.889-1.243-2.469-1.67c-0.581-0.427-1.214-0.982-1.9-1.67c-0.688-0.687-1.185-1.415-1.492-2.185
		c-0.308-0.77-0.462-1.628-0.462-2.575c0-2.108,0.764-3.718,2.292-4.832c1.527-1.113,3.416-1.669,5.666-1.669
		c1.895,0,3.624,0.462,5.187,1.385c0.591,0.332,0.995,0.498,1.208,0.498c0.379,0,0.64-0.521,0.782-1.563h0.817
		c-0.119,1.587-0.178,4.287-0.178,8.1h-0.817c-0.142-2.036-0.74-3.807-1.794-5.311c-1.054-1.504-2.469-2.256-4.245-2.256
		c-1.161,0-2.102,0.326-2.824,0.977c-0.723,0.651-1.083,1.534-1.083,2.646c0,0.309,0.023,0.604,0.071,0.889
		c0.047,0.284,0.136,0.563,0.267,0.834c0.13,0.273,0.249,0.504,0.355,0.693c0.107,0.189,0.302,0.421,0.586,0.692
		c0.284,0.272,0.503,0.486,0.657,0.64c0.154,0.154,0.438,0.379,0.853,0.675c0.414,0.297,0.728,0.521,0.941,0.675
		c0.213,0.154,0.598,0.415,1.155,0.782c0.556,0.367,0.964,0.646,1.226,0.835c1.042,0.687,1.847,1.249,2.416,1.687
		c0.568,0.438,1.172,0.995,1.812,1.67c0.64,0.675,1.102,1.386,1.386,2.132s0.426,1.581,0.426,2.504c0,2.227-0.835,3.938-2.504,5.134
		c-1.67,1.196-3.772,1.794-6.306,1.794c-2.203,0-4.109-0.438-5.72-1.314c-0.521-0.331-0.923-0.497-1.208-0.497
		c-0.379,0-0.639,0.521-0.781,1.563h-0.817c0.094-1.491,0.142-4.688,0.142-9.592H184.195z"/>
	<path d="M239.934,51.3c0.995,0.071,2.427,0.106,4.298,0.106h1.101c3.339-0.071,5.198-0.106,5.578-0.106
		c4.618,0,8.076,1.048,10.373,3.144c2.297,2.096,3.446,5.146,3.446,9.147c0,3.908-1.256,7.028-3.766,9.361
		c-2.511,2.333-5.968,3.499-10.374,3.499c-0.332,0-1.137-0.018-2.416-0.054c-1.279-0.035-2.203-0.053-2.771-0.053
		c-2.439,0-4.263,0.035-5.471,0.106v-0.711c1.137-0.047,1.865-0.248,2.185-0.604s0.479-1.173,0.479-2.451v-17.62
		c0-1.28-0.16-2.097-0.479-2.452c-0.32-0.355-1.048-0.556-2.185-0.604V51.3z M248.246,72.757c0,1.256,0.172,2.079,0.515,2.47
		s1.06,0.586,2.149,0.586c2.865,0,4.902-1,6.11-3.002c1.208-2.001,1.812-5.026,1.812-9.076s-0.622-7.028-1.865-8.935
		c-1.244-1.907-3.274-2.86-6.093-2.86c-1.065,0-1.771,0.202-2.114,0.604c-0.343,0.403-0.515,1.22-0.515,2.452V72.757z"/>
	<path d="M300.965,68.068c-0.071,0.781-0.107,1.776-0.107,2.983c0,2.18,0.083,3.979,0.249,5.4c-1.611-0.071-4.323-0.106-8.135-0.106
		c-5.164,0-9.023,0.035-11.581,0.106v-0.711c1.137-0.047,1.865-0.248,2.185-0.604s0.479-1.173,0.479-2.451v-17.62
		c0-1.28-0.16-2.097-0.479-2.452c-0.32-0.355-1.048-0.556-2.185-0.604V51.3c2.558,0.071,6.417,0.106,11.581,0.106
		c3.481,0,5.956-0.036,7.425-0.106c-0.166,1.966-0.249,3.718-0.249,5.257c0,1.043,0.036,1.848,0.106,2.416h-0.817
		c-0.355-2.534-0.995-4.311-1.918-5.329c-0.923-1.018-2.226-1.527-3.908-1.527h-1.457c-1.065,0-1.741,0.148-2.025,0.444
		c-0.284,0.296-0.426,0.989-0.426,2.079v8.811h1.137c2.179,0,3.588-1.563,4.228-4.689h0.817c-0.071,0.994-0.107,2.108-0.107,3.339
		v1.705c0,1.208,0.071,2.89,0.213,5.045h-0.817c-0.498-3.126-1.942-4.689-4.334-4.689h-1.137v8.952c0,1.09,0.142,1.782,0.426,2.078
		c0.284,0.297,0.959,0.444,2.025,0.444h1.741c1.682,0,3.038-0.574,4.068-1.723s1.758-3.097,2.185-5.844H300.965z"/>
	<path d="M318.123,51.3c1.208,0.071,3.078,0.106,5.613,0.106c2.416,0,4.274-0.036,5.577-0.106v0.71
		c-1.231,0.047-2.019,0.249-2.362,0.604c-0.343,0.355-0.515,1.172-0.515,2.452v18.046c0,1.09,0.136,1.782,0.409,2.078
		c0.272,0.297,0.882,0.444,1.83,0.444h1.741c1.61,0,3.002-0.722,4.174-2.167c1.172-1.444,1.936-3.362,2.291-5.755h0.817
		c-0.071,0.806-0.107,1.848-0.107,3.126c0,2.273,0.083,4.145,0.249,5.613c-1.611-0.071-4.323-0.106-8.135-0.106
		c-5.164,0-9.023,0.035-11.581,0.106v-0.711c1.137-0.047,1.865-0.248,2.185-0.604s0.479-1.173,0.479-2.451v-17.62
		c0-1.28-0.16-2.097-0.479-2.452c-0.32-0.355-1.048-0.556-2.185-0.604V51.3z"/>
	<path d="M826.011,59.4c0.071-0.688,0.106-1.587,0.106-2.7c0-1.587-0.083-3.387-0.248-5.4c1.563,0.071,4.228,0.106,7.993,0.106
		c4.665,0,8.04-0.036,10.124-0.106v0.71l-12.362,23.624h3.907c1.848,0,3.487-0.615,4.921-1.848c1.433-1.23,2.291-3.185,2.575-5.861
		h0.817c-0.071,0.829-0.106,1.871-0.106,3.126c0,2.18,0.082,3.979,0.248,5.4c-1.753-0.071-4.701-0.106-8.846-0.106
		c-4.405,0-7.591,0.035-9.556,0.106v-0.711l12.397-23.624h-4.05c-4.145,0-6.513,2.428-7.104,7.283H826.011z"/>
	<path d="M873.898,50.803c3.813,0,6.856,1.137,9.13,3.41c2.273,2.274,3.41,5.424,3.41,9.45c0,3.955-1.172,7.158-3.517,9.609
		s-5.364,3.677-9.06,3.677c-3.813,0-6.855-1.137-9.13-3.41c-2.273-2.273-3.41-5.423-3.41-9.45c0-3.954,1.166-7.158,3.499-9.609
		S870.18,50.803,873.898,50.803z M873.756,51.442c-1.966,0-3.547,1.154-4.742,3.464c-1.196,2.309-1.794,5.323-1.794,9.041
		c0,3.694,0.651,6.679,1.954,8.952c1.302,2.273,2.913,3.41,4.831,3.41c1.966,0,3.546-1.154,4.742-3.464
		c1.196-2.309,1.794-5.322,1.794-9.041c0-3.694-0.651-6.679-1.953-8.952C877.285,52.579,875.675,51.442,873.756,51.442z"/>
	<path d="M927.186,74.889c-1.208,1.374-2.783,2.061-4.725,2.061c-1.374,0-2.458-0.29-3.251-0.87
		c-0.794-0.58-1.309-1.569-1.545-2.967l-0.64-3.552c-0.309-1.729-0.682-3.002-1.119-3.819c-0.438-0.817-1.167-1.226-2.185-1.226
		h-2.31v8.171c0,1.278,0.154,2.096,0.462,2.451s1.042,0.557,2.202,0.604v0.711c-1.278-0.071-3.067-0.106-5.364-0.106
		c-2.534,0-4.404,0.035-5.612,0.106v-0.711c1.137-0.047,1.865-0.248,2.185-0.604s0.479-1.173,0.479-2.451v-17.62
		c0-1.28-0.16-2.097-0.479-2.452c-0.319-0.355-1.048-0.556-2.185-0.604V51.3c1.208,0.071,3.007,0.106,5.399,0.106
		c0.876,0,1.978-0.012,3.304-0.036c1.326-0.023,2.084-0.036,2.273-0.036c3.269,0,5.726,0.533,7.372,1.599
		c1.646,1.066,2.469,2.593,2.469,4.583c0,1.682-0.616,3.161-1.848,4.44c-1.231,1.278-3.268,2.084-6.11,2.415
		c2.132,0.19,3.719,0.652,4.761,1.386c1.042,0.734,1.717,1.836,2.025,3.304l0.816,3.659c0.189,0.972,0.409,1.641,0.657,2.007
		c0.249,0.368,0.598,0.551,1.048,0.551c0.474-0.023,0.947-0.296,1.421-0.816L927.186,74.889z M912.939,63.805
		c1.942,0,3.274-0.515,3.997-1.545c0.722-1.03,1.083-2.48,1.083-4.352c0-1.942-0.343-3.41-1.03-4.406
		c-0.687-0.995-1.812-1.492-3.374-1.492c-0.924,0-1.522,0.201-1.795,0.604c-0.272,0.403-0.408,1.22-0.408,2.452v8.738H912.939z"/>
	<path d="M965.979,74.889c-1.208,1.374-2.783,2.061-4.725,2.061c-1.374,0-2.458-0.29-3.251-0.87
		c-0.794-0.58-1.309-1.569-1.545-2.967l-0.64-3.552c-0.309-1.729-0.682-3.002-1.119-3.819c-0.438-0.817-1.167-1.226-2.185-1.226
		h-2.31v8.171c0,1.278,0.154,2.096,0.462,2.451s1.042,0.557,2.202,0.604v0.711c-1.278-0.071-3.067-0.106-5.364-0.106
		c-2.534,0-4.404,0.035-5.612,0.106v-0.711c1.137-0.047,1.865-0.248,2.185-0.604s0.479-1.173,0.479-2.451v-17.62
		c0-1.28-0.16-2.097-0.479-2.452c-0.319-0.355-1.048-0.556-2.185-0.604V51.3c1.208,0.071,3.007,0.106,5.399,0.106
		c0.876,0,1.978-0.012,3.304-0.036c1.326-0.023,2.084-0.036,2.273-0.036c3.269,0,5.726,0.533,7.372,1.599
		c1.646,1.066,2.469,2.593,2.469,4.583c0,1.682-0.616,3.161-1.848,4.44c-1.231,1.278-3.268,2.084-6.11,2.415
		c2.132,0.19,3.719,0.652,4.761,1.386c1.042,0.734,1.717,1.836,2.025,3.304l0.816,3.659c0.189,0.972,0.409,1.641,0.657,2.007
		c0.249,0.368,0.598,0.551,1.048,0.551c0.474-0.023,0.947-0.296,1.421-0.816L965.979,74.889z M951.732,63.805
		c1.942,0,3.274-0.515,3.997-1.545c0.722-1.03,1.083-2.48,1.083-4.352c0-1.942-0.343-3.41-1.03-4.406
		c-0.687-0.995-1.812-1.492-3.374-1.492c-0.924,0-1.522,0.201-1.795,0.604c-0.272,0.403-0.408,1.22-0.408,2.452v8.738H951.732z"/>
	<path d="M993.581,50.803c3.813,0,6.856,1.137,9.13,3.41c2.273,2.274,3.41,5.424,3.41,9.45c0,3.955-1.172,7.158-3.517,9.609
		s-5.364,3.677-9.06,3.677c-3.813,0-6.855-1.137-9.13-3.41c-2.273-2.273-3.41-5.423-3.41-9.45c0-3.954,1.166-7.158,3.499-9.609
		S989.862,50.803,993.581,50.803z M993.438,51.442c-1.966,0-3.547,1.154-4.742,3.464c-1.196,2.309-1.794,5.323-1.794,9.041
		c0,3.694,0.651,6.679,1.954,8.952c1.302,2.273,2.913,3.41,4.831,3.41c1.966,0,3.546-1.154,4.742-3.464
		c1.196-2.309,1.794-5.322,1.794-9.041c0-3.694-0.651-6.679-1.953-8.952C996.968,52.579,995.357,51.442,993.438,51.442z"/>
	<path d="M1069.639,74.889c-1.208,1.374-2.783,2.061-4.725,2.061c-1.374,0-2.458-0.29-3.251-0.87
		c-0.794-0.58-1.309-1.569-1.545-2.967l-0.64-3.552c-0.309-1.729-0.682-3.002-1.119-3.819c-0.438-0.817-1.167-1.226-2.185-1.226
		h-2.31v8.171c0,1.278,0.154,2.096,0.462,2.451s1.042,0.557,2.202,0.604v0.711c-1.278-0.071-3.067-0.106-5.364-0.106
		c-2.534,0-4.404,0.035-5.612,0.106v-0.711c1.137-0.047,1.865-0.248,2.185-0.604s0.479-1.173,0.479-2.451v-17.62
		c0-1.28-0.16-2.097-0.479-2.452c-0.319-0.355-1.048-0.556-2.185-0.604V51.3c1.208,0.071,3.007,0.106,5.399,0.106
		c0.876,0,1.978-0.012,3.304-0.036c1.326-0.023,2.084-0.036,2.273-0.036c3.269,0,5.726,0.533,7.372,1.599
		c1.646,1.066,2.469,2.593,2.469,4.583c0,1.682-0.616,3.161-1.848,4.44c-1.231,1.278-3.268,2.084-6.11,2.415
		c2.132,0.19,3.719,0.652,4.761,1.386c1.042,0.734,1.717,1.836,2.025,3.304l0.816,3.659c0.189,0.972,0.409,1.641,0.657,2.007
		c0.249,0.368,0.598,0.551,1.048,0.551c0.474-0.023,0.947-0.296,1.421-0.816L1069.639,74.889z M1055.393,63.805
		c1.942,0,3.274-0.515,3.997-1.545c0.722-1.03,1.083-2.48,1.083-4.352c0-1.942-0.343-3.41-1.03-4.406
		c-0.687-0.995-1.812-1.492-3.374-1.492c-0.924,0-1.522,0.201-1.795,0.604c-0.272,0.403-0.408,1.22-0.408,2.452v8.738H1055.393z"/>
	<path d="M1097.241,50.803c3.813,0,6.856,1.137,9.13,3.41c2.273,2.274,3.41,5.424,3.41,9.45c0,3.955-1.172,7.158-3.517,9.609
		s-5.364,3.677-9.06,3.677c-3.813,0-6.855-1.137-9.13-3.41c-2.273-2.273-3.41-5.423-3.41-9.45c0-3.954,1.166-7.158,3.499-9.609
		S1093.522,50.803,1097.241,50.803z M1097.099,51.442c-1.966,0-3.547,1.154-4.742,3.464c-1.196,2.309-1.794,5.323-1.794,9.041
		c0,3.694,0.651,6.679,1.954,8.952c1.302,2.273,2.913,3.41,4.831,3.41c1.966,0,3.546-1.154,4.742-3.464
		c1.196-2.309,1.794-5.322,1.794-9.041c0-3.694-0.651-6.679-1.953-8.952C1100.628,52.579,1099.018,51.442,1097.099,51.442z"/>
	<path d="M1126.266,51.3c1.184,0.071,2.983,0.106,5.399,0.106s4.274-0.036,5.577-0.106v0.71c-1.16,0.047-1.895,0.249-2.202,0.604
		c-0.309,0.355-0.462,1.172-0.462,2.452v13.002v2.167c0,3.339-0.201,5.708-0.604,7.104c-0.497,1.705-1.539,3.097-3.126,4.175
		c-1.587,1.077-3.541,1.616-5.861,1.616c-1.492,0-2.688-0.226-3.588-0.675c-1.16-0.593-1.741-1.445-1.741-2.559
		c0-0.734,0.262-1.32,0.782-1.758c0.521-0.438,1.208-0.657,2.061-0.657c0.829,0,1.486,0.2,1.972,0.604
		c0.485,0.402,0.728,0.982,0.728,1.741c0,1.16-0.604,1.941-1.812,2.345c0.213,0.165,0.64,0.248,1.279,0.248
		c0.853,0,1.592-0.23,2.22-0.692c0.627-0.462,1.084-1.084,1.368-1.865c0.308-0.877,0.497-1.854,0.568-2.931
		c0.07-1.077,0.106-2.954,0.106-5.631V55.066c0-1.28-0.16-2.097-0.479-2.452c-0.32-0.355-1.048-0.556-2.185-0.604V51.3z"/>
	<path d="M1166.23,50.803c3.813,0,6.856,1.137,9.13,3.41c2.273,2.274,3.41,5.424,3.41,9.45c0,3.955-1.172,7.158-3.517,9.609
		s-5.364,3.677-9.06,3.677c-3.813,0-6.855-1.137-9.13-3.41c-2.273-2.273-3.41-5.423-3.41-9.45c0-3.954,1.166-7.158,3.499-9.609
		S1162.512,50.803,1166.23,50.803z M1166.088,51.442c-1.966,0-3.547,1.154-4.742,3.464c-1.196,2.309-1.794,5.323-1.794,9.041
		c0,3.694,0.651,6.679,1.954,8.952c1.302,2.273,2.913,3.41,4.831,3.41c1.966,0,3.546-1.154,4.742-3.464
		c1.196-2.309,1.794-5.322,1.794-9.041c0-3.694-0.651-6.679-1.953-8.952C1169.617,52.579,1168.007,51.442,1166.088,51.442z"/>
</g>
</svg>
